<mxfile host="app.diagrams.net" modified="2024-05-19T13:27:49.861Z" agent="Mozilla/5.0 (Windows NT 10.0; Win64; x64; rv:126.0) Gecko/20100101 Firefox/126.0" etag="PxNlt_kbCNGJcJBw0dOF" version="24.4.4" type="device">
  <diagram name="第 1 页" id="duQrCIHiaqTd_Oi0UtJW">
    <mxGraphModel dx="2378" dy="815" grid="1" gridSize="10" guides="1" tooltips="1" connect="1" arrows="1" fold="1" page="1" pageScale="1" pageWidth="827" pageHeight="1169" math="0" shadow="0">
      <root>
        <mxCell id="0" />
        <mxCell id="1" parent="0" />
        <mxCell id="gI9t6yz1Oa0XXFwcf4oz-1" value="Project" style="swimlane;fontStyle=0;childLayout=stackLayout;horizontal=1;startSize=26;fillColor=none;horizontalStack=0;resizeParent=1;resizeParentMax=0;resizeLast=0;collapsible=1;marginBottom=0;whiteSpace=wrap;html=1;fontSize=13;" parent="1" vertex="1">
          <mxGeometry x="-820" y="1042" width="320" height="374" as="geometry" />
        </mxCell>
        <mxCell id="gI9t6yz1Oa0XXFwcf4oz-2" value="+ Pid:str" style="text;strokeColor=none;fillColor=none;align=left;verticalAlign=top;spacingLeft=4;spacingRight=4;overflow=hidden;rotatable=0;points=[[0,0.5],[1,0.5]];portConstraint=eastwest;whiteSpace=wrap;html=1;fontSize=13;" parent="gI9t6yz1Oa0XXFwcf4oz-1" vertex="1">
          <mxGeometry y="26" width="320" height="26" as="geometry" />
        </mxCell>
        <mxCell id="gI9t6yz1Oa0XXFwcf4oz-3" value="+ CreatorUid:str" style="text;strokeColor=none;fillColor=none;align=left;verticalAlign=top;spacingLeft=4;spacingRight=4;overflow=hidden;rotatable=0;points=[[0,0.5],[1,0.5]];portConstraint=eastwest;whiteSpace=wrap;html=1;fontSize=13;" parent="gI9t6yz1Oa0XXFwcf4oz-1" vertex="1">
          <mxGeometry y="52" width="320" height="26" as="geometry" />
        </mxCell>
        <mxCell id="gI9t6yz1Oa0XXFwcf4oz-4" value="+ CreateDate:date" style="text;strokeColor=none;fillColor=none;align=left;verticalAlign=top;spacingLeft=4;spacingRight=4;overflow=hidden;rotatable=0;points=[[0,0.5],[1,0.5]];portConstraint=eastwest;whiteSpace=wrap;html=1;fontSize=13;" parent="gI9t6yz1Oa0XXFwcf4oz-1" vertex="1">
          <mxGeometry y="78" width="320" height="26" as="geometry" />
        </mxCell>
        <mxCell id="gI9t6yz1Oa0XXFwcf4oz-5" value="+ IsPrivate:bool" style="text;whiteSpace=wrap;html=1;fontFamily=Helvetica;fontSize=13;fontColor=default;spacingLeft=4;" parent="gI9t6yz1Oa0XXFwcf4oz-1" vertex="1">
          <mxGeometry y="104" width="320" height="30" as="geometry" />
        </mxCell>
        <mxCell id="gI9t6yz1Oa0XXFwcf4oz-6" value="+ SeenInBrowser:bool" style="text;whiteSpace=wrap;html=1;fontFamily=Helvetica;fontSize=13;fontColor=default;spacingLeft=4;" parent="gI9t6yz1Oa0XXFwcf4oz-1" vertex="1">
          <mxGeometry y="134" width="320" height="30" as="geometry" />
        </mxCell>
        <mxCell id="gI9t6yz1Oa0XXFwcf4oz-8" value="+ IsReadOnly:bool" style="text;whiteSpace=wrap;html=1;fontFamily=Helvetica;fontSize=13;fontColor=default;spacingLeft=4;" parent="gI9t6yz1Oa0XXFwcf4oz-1" vertex="1">
          <mxGeometry y="164" width="320" height="30" as="geometry" />
        </mxCell>
        <mxCell id="gI9t6yz1Oa0XXFwcf4oz-14" value="+ ProjectTitle:str" style="text;whiteSpace=wrap;html=1;fontFamily=Helvetica;fontSize=13;fontColor=default;spacingLeft=4;" parent="gI9t6yz1Oa0XXFwcf4oz-1" vertex="1">
          <mxGeometry y="194" width="320" height="30" as="geometry" />
        </mxCell>
        <mxCell id="gI9t6yz1Oa0XXFwcf4oz-13" value="+ ProjectDesc:markdown" style="text;whiteSpace=wrap;html=1;fontFamily=Helvetica;fontSize=13;fontColor=default;spacingLeft=4;" parent="gI9t6yz1Oa0XXFwcf4oz-1" vertex="1">
          <mxGeometry y="224" width="320" height="30" as="geometry" />
        </mxCell>
        <mxCell id="gI9t6yz1Oa0XXFwcf4oz-81" value="+ ProjectIcon:image" style="text;whiteSpace=wrap;html=1;fontFamily=Helvetica;fontSize=13;fontColor=default;spacingLeft=4;" parent="gI9t6yz1Oa0XXFwcf4oz-1" vertex="1">
          <mxGeometry y="254" width="320" height="30" as="geometry" />
        </mxCell>
        <mxCell id="gI9t6yz1Oa0XXFwcf4oz-11" value="+ Members:Pair&amp;lt;ProjectPermissionGroup,str&amp;gt;" style="text;whiteSpace=wrap;html=1;fontFamily=Helvetica;fontSize=13;fontColor=default;spacingLeft=4;" parent="gI9t6yz1Oa0XXFwcf4oz-1" vertex="1">
          <mxGeometry y="284" width="320" height="30" as="geometry" />
        </mxCell>
        <mxCell id="gI9t6yz1Oa0XXFwcf4oz-10" value="+ DefaultPermissionGroup:ProjectPermissionGroup" style="text;whiteSpace=wrap;html=1;fontFamily=Helvetica;fontSize=13;fontColor=default;spacingLeft=4;" parent="gI9t6yz1Oa0XXFwcf4oz-1" vertex="1">
          <mxGeometry y="314" width="320" height="30" as="geometry" />
        </mxCell>
        <mxCell id="iaXDbrhAoCBRmgVuGUHC-9" value="+ DutyLimit:bool" style="text;whiteSpace=wrap;html=1;fontFamily=Helvetica;fontSize=13;fontColor=default;spacingLeft=4;" parent="gI9t6yz1Oa0XXFwcf4oz-1" vertex="1">
          <mxGeometry y="344" width="320" height="30" as="geometry" />
        </mxCell>
        <mxCell id="gI9t6yz1Oa0XXFwcf4oz-55" value="AnnotationEntry" style="swimlane;fontStyle=0;childLayout=stackLayout;horizontal=1;startSize=26;fillColor=none;horizontalStack=0;resizeParent=1;resizeParentMax=0;resizeLast=0;collapsible=1;marginBottom=0;whiteSpace=wrap;html=1;fontSize=13;" parent="1" vertex="1">
          <mxGeometry x="-156" y="418" width="200" height="108" as="geometry" />
        </mxCell>
        <mxCell id="gI9t6yz1Oa0XXFwcf4oz-57" value="+ Uid:str" style="text;strokeColor=none;fillColor=none;align=left;verticalAlign=top;spacingLeft=4;spacingRight=4;overflow=hidden;rotatable=0;points=[[0,0.5],[1,0.5]];portConstraint=eastwest;whiteSpace=wrap;html=1;fontSize=13;" parent="gI9t6yz1Oa0XXFwcf4oz-55" vertex="1">
          <mxGeometry y="26" width="200" height="26" as="geometry" />
        </mxCell>
        <mxCell id="gI9t6yz1Oa0XXFwcf4oz-58" value="+ CreateDate:timestamp" style="text;strokeColor=none;fillColor=none;align=left;verticalAlign=top;spacingLeft=4;spacingRight=4;overflow=hidden;rotatable=0;points=[[0,0.5],[1,0.5]];portConstraint=eastwest;whiteSpace=wrap;html=1;fontSize=13;" parent="gI9t6yz1Oa0XXFwcf4oz-55" vertex="1">
          <mxGeometry y="52" width="200" height="26" as="geometry" />
        </mxCell>
        <mxCell id="gI9t6yz1Oa0XXFwcf4oz-60" value="+ Data:str" style="text;whiteSpace=wrap;html=1;fontFamily=Helvetica;fontSize=13;fontColor=default;spacingLeft=4;" parent="gI9t6yz1Oa0XXFwcf4oz-55" vertex="1">
          <mxGeometry y="78" width="200" height="30" as="geometry" />
        </mxCell>
        <mxCell id="GkcXhDEHEu3UvXluwhEP-16" value="ModuleProcessManagement" style="swimlane;fontStyle=0;childLayout=stackLayout;horizontal=1;startSize=26;fillColor=none;horizontalStack=0;resizeParent=1;resizeParentMax=0;resizeLast=0;collapsible=1;marginBottom=0;whiteSpace=wrap;html=1;fontSize=13;" parent="1" vertex="1">
          <mxGeometry x="-716" y="780" width="280" height="234" as="geometry" />
        </mxCell>
        <mxCell id="GkcXhDEHEu3UvXluwhEP-17" value="Subclass:TimePlan" style="text;strokeColor=none;fillColor=none;align=left;verticalAlign=top;spacingLeft=4;spacingRight=4;overflow=hidden;rotatable=0;points=[[0,0.5],[1,0.5]];portConstraint=eastwest;whiteSpace=wrap;html=1;fontSize=13;" parent="GkcXhDEHEu3UvXluwhEP-16" vertex="1">
          <mxGeometry y="26" width="280" height="26" as="geometry" />
        </mxCell>
        <mxCell id="GkcXhDEHEu3UvXluwhEP-18" value="+ ProjectTODOLists:ProjectTODOList[]" style="text;strokeColor=none;fillColor=none;align=left;verticalAlign=top;spacingLeft=4;spacingRight=4;overflow=hidden;rotatable=0;points=[[0,0.5],[1,0.5]];portConstraint=eastwest;whiteSpace=wrap;html=1;fontSize=13;" parent="GkcXhDEHEu3UvXluwhEP-16" vertex="1">
          <mxGeometry y="52" width="280" height="26" as="geometry" />
        </mxCell>
        <mxCell id="GkcXhDEHEu3UvXluwhEP-41" value="+ ProjectReleasePoints:ProjectReleasePoint[]" style="text;strokeColor=none;fillColor=none;align=left;verticalAlign=top;spacingLeft=4;spacingRight=4;overflow=hidden;rotatable=0;points=[[0,0.5],[1,0.5]];portConstraint=eastwest;whiteSpace=wrap;html=1;fontSize=13;" parent="GkcXhDEHEu3UvXluwhEP-16" vertex="1">
          <mxGeometry y="78" width="280" height="26" as="geometry" />
        </mxCell>
        <mxCell id="GkcXhDEHEu3UvXluwhEP-40" value="Subclass:Release" style="text;strokeColor=none;fillColor=none;align=left;verticalAlign=top;spacingLeft=4;spacingRight=4;overflow=hidden;rotatable=0;points=[[0,0.5],[1,0.5]];portConstraint=eastwest;whiteSpace=wrap;html=1;fontSize=13;" parent="GkcXhDEHEu3UvXluwhEP-16" vertex="1">
          <mxGeometry y="104" width="280" height="26" as="geometry" />
        </mxCell>
        <mxCell id="GkcXhDEHEu3UvXluwhEP-39" value="+ ManualReleases:Release[]" style="text;strokeColor=none;fillColor=none;align=left;verticalAlign=top;spacingLeft=4;spacingRight=4;overflow=hidden;rotatable=0;points=[[0,0.5],[1,0.5]];portConstraint=eastwest;whiteSpace=wrap;html=1;fontSize=13;" parent="GkcXhDEHEu3UvXluwhEP-16" vertex="1">
          <mxGeometry y="130" width="280" height="26" as="geometry" />
        </mxCell>
        <mxCell id="GkcXhDEHEu3UvXluwhEP-42" value="+ AutoReleases:Release[]" style="text;strokeColor=none;fillColor=none;align=left;verticalAlign=top;spacingLeft=4;spacingRight=4;overflow=hidden;rotatable=0;points=[[0,0.5],[1,0.5]];portConstraint=eastwest;whiteSpace=wrap;html=1;fontSize=13;" parent="GkcXhDEHEu3UvXluwhEP-16" vertex="1">
          <mxGeometry y="156" width="280" height="26" as="geometry" />
        </mxCell>
        <mxCell id="GkcXhDEHEu3UvXluwhEP-44" value="Subclass:Delay" style="text;strokeColor=none;fillColor=none;align=left;verticalAlign=top;spacingLeft=4;spacingRight=4;overflow=hidden;rotatable=0;points=[[0,0.5],[1,0.5]];portConstraint=eastwest;whiteSpace=wrap;html=1;fontSize=13;" parent="GkcXhDEHEu3UvXluwhEP-16" vertex="1">
          <mxGeometry y="182" width="280" height="26" as="geometry" />
        </mxCell>
        <mxCell id="GkcXhDEHEu3UvXluwhEP-45" value="+ ProjectReleaseDelays:ReleaseDelays[]" style="text;strokeColor=none;fillColor=none;align=left;verticalAlign=top;spacingLeft=4;spacingRight=4;overflow=hidden;rotatable=0;points=[[0,0.5],[1,0.5]];portConstraint=eastwest;whiteSpace=wrap;html=1;fontSize=13;" parent="GkcXhDEHEu3UvXluwhEP-16" vertex="1">
          <mxGeometry y="208" width="280" height="26" as="geometry" />
        </mxCell>
        <mxCell id="GkcXhDEHEu3UvXluwhEP-27" value="ModuleWorkManagement" style="swimlane;fontStyle=0;childLayout=stackLayout;horizontal=1;startSize=26;fillColor=none;horizontalStack=0;resizeParent=1;resizeParentMax=0;resizeLast=0;collapsible=1;marginBottom=0;whiteSpace=wrap;html=1;fontSize=13;" parent="1" vertex="1">
          <mxGeometry x="-710" y="418" width="280" height="344" as="geometry" />
        </mxCell>
        <mxCell id="GkcXhDEHEu3UvXluwhEP-28" value="Subclass:IO" style="text;strokeColor=none;fillColor=none;align=left;verticalAlign=top;spacingLeft=4;spacingRight=4;overflow=hidden;rotatable=0;points=[[0,0.5],[1,0.5]];portConstraint=eastwest;whiteSpace=wrap;html=1;fontSize=13;" parent="GkcXhDEHEu3UvXluwhEP-27" vertex="1">
          <mxGeometry y="26" width="280" height="26" as="geometry" />
        </mxCell>
        <mxCell id="GkcXhDEHEu3UvXluwhEP-29" value="+ IOPreference:IOPreference[]" style="text;strokeColor=none;fillColor=none;align=left;verticalAlign=top;spacingLeft=4;spacingRight=4;overflow=hidden;rotatable=0;points=[[0,0.5],[1,0.5]];portConstraint=eastwest;whiteSpace=wrap;html=1;fontSize=13;" parent="GkcXhDEHEu3UvXluwhEP-27" vertex="1">
          <mxGeometry y="52" width="280" height="26" as="geometry" />
        </mxCell>
        <mxCell id="GkcXhDEHEu3UvXluwhEP-30" value="Subclass:Annotation" style="text;strokeColor=none;fillColor=none;align=left;verticalAlign=top;spacingLeft=4;spacingRight=4;overflow=hidden;rotatable=0;points=[[0,0.5],[1,0.5]];portConstraint=eastwest;whiteSpace=wrap;html=1;fontSize=13;" parent="GkcXhDEHEu3UvXluwhEP-27" vertex="1">
          <mxGeometry y="78" width="280" height="26" as="geometry" />
        </mxCell>
        <mxCell id="GkcXhDEHEu3UvXluwhEP-31" value="+&amp;nbsp;Annotations:&amp;nbsp;AnnotationEntry[]" style="text;whiteSpace=wrap;html=1;fontFamily=Helvetica;fontSize=13;fontColor=default;spacingLeft=4;" parent="GkcXhDEHEu3UvXluwhEP-27" vertex="1">
          <mxGeometry y="104" width="280" height="30" as="geometry" />
        </mxCell>
        <mxCell id="GkcXhDEHEu3UvXluwhEP-34" value="Subclass:KV" style="text;whiteSpace=wrap;html=1;fontFamily=Helvetica;fontSize=13;fontColor=default;spacingLeft=4;" parent="GkcXhDEHEu3UvXluwhEP-27" vertex="1">
          <mxGeometry y="134" width="280" height="30" as="geometry" />
        </mxCell>
        <mxCell id="GkcXhDEHEu3UvXluwhEP-35" value="+ KVPairs:Pair&amp;lt;str,str&amp;gt;[]" style="text;whiteSpace=wrap;html=1;fontFamily=Helvetica;fontSize=13;fontColor=default;spacingLeft=4;" parent="GkcXhDEHEu3UvXluwhEP-27" vertex="1">
          <mxGeometry y="164" width="280" height="30" as="geometry" />
        </mxCell>
        <mxCell id="GkcXhDEHEu3UvXluwhEP-32" value="Subclass:Macro" style="text;whiteSpace=wrap;html=1;fontFamily=Helvetica;fontSize=13;fontColor=default;spacingLeft=4;" parent="GkcXhDEHEu3UvXluwhEP-27" vertex="1">
          <mxGeometry y="194" width="280" height="30" as="geometry" />
        </mxCell>
        <mxCell id="GkcXhDEHEu3UvXluwhEP-33" value="+ ProjectMacros:Macro[]" style="text;whiteSpace=wrap;html=1;fontFamily=Helvetica;fontSize=13;fontColor=default;spacingLeft=4;" parent="GkcXhDEHEu3UvXluwhEP-27" vertex="1">
          <mxGeometry y="224" width="280" height="30" as="geometry" />
        </mxCell>
        <mxCell id="GkcXhDEHEu3UvXluwhEP-47" value="+ MacroRegexs:str[]" style="text;whiteSpace=wrap;html=1;fontFamily=Helvetica;fontSize=13;fontColor=default;spacingLeft=4;" parent="GkcXhDEHEu3UvXluwhEP-27" vertex="1">
          <mxGeometry y="254" width="280" height="30" as="geometry" />
        </mxCell>
        <mxCell id="GkcXhDEHEu3UvXluwhEP-36" value="Subclass:Term" style="text;whiteSpace=wrap;html=1;fontFamily=Helvetica;fontSize=13;fontColor=default;spacingLeft=4;" parent="GkcXhDEHEu3UvXluwhEP-27" vertex="1">
          <mxGeometry y="284" width="280" height="30" as="geometry" />
        </mxCell>
        <mxCell id="GkcXhDEHEu3UvXluwhEP-37" value="+ ProjectTerms:Term[]" style="text;whiteSpace=wrap;html=1;fontFamily=Helvetica;fontSize=13;fontColor=default;spacingLeft=4;" parent="GkcXhDEHEu3UvXluwhEP-27" vertex="1">
          <mxGeometry y="314" width="280" height="30" as="geometry" />
        </mxCell>
        <mxCell id="GkcXhDEHEu3UvXluwhEP-48" value="Macro" style="swimlane;fontStyle=0;childLayout=stackLayout;horizontal=1;startSize=26;fillColor=none;horizontalStack=0;resizeParent=1;resizeParentMax=0;resizeLast=0;collapsible=1;marginBottom=0;whiteSpace=wrap;html=1;fontSize=13;" parent="1" vertex="1">
          <mxGeometry x="-381" y="556" width="200" height="176" as="geometry" />
        </mxCell>
        <mxCell id="GkcXhDEHEu3UvXluwhEP-52" value="+ MacroStr:str" style="text;whiteSpace=wrap;html=1;fontFamily=Helvetica;fontSize=13;fontColor=default;spacingLeft=4;" parent="GkcXhDEHEu3UvXluwhEP-48" vertex="1">
          <mxGeometry y="26" width="200" height="30" as="geometry" />
        </mxCell>
        <mxCell id="GkcXhDEHEu3UvXluwhEP-53" value="+ Desc:str" style="text;whiteSpace=wrap;html=1;fontFamily=Helvetica;fontSize=13;fontColor=default;spacingLeft=4;" parent="GkcXhDEHEu3UvXluwhEP-48" vertex="1">
          <mxGeometry y="56" width="200" height="30" as="geometry" />
        </mxCell>
        <mxCell id="Rgy7_vi8cr9XrP70HSUl-1" value="+ PreviewStr:str" style="text;whiteSpace=wrap;html=1;fontFamily=Helvetica;fontSize=13;fontColor=default;spacingLeft=4;" parent="GkcXhDEHEu3UvXluwhEP-48" vertex="1">
          <mxGeometry y="86" width="200" height="30" as="geometry" />
        </mxCell>
        <mxCell id="GkcXhDEHEu3UvXluwhEP-55" value="+ Pattern:str" style="text;whiteSpace=wrap;html=1;fontFamily=Helvetica;fontSize=13;fontColor=default;spacingLeft=4;" parent="GkcXhDEHEu3UvXluwhEP-48" vertex="1">
          <mxGeometry y="116" width="200" height="30" as="geometry" />
        </mxCell>
        <mxCell id="GkcXhDEHEu3UvXluwhEP-54" value="+ RelatedEid:str[]" style="text;whiteSpace=wrap;html=1;fontFamily=Helvetica;fontSize=13;fontColor=default;spacingLeft=4;" parent="GkcXhDEHEu3UvXluwhEP-48" vertex="1">
          <mxGeometry y="146" width="200" height="30" as="geometry" />
        </mxCell>
        <mxCell id="GkcXhDEHEu3UvXluwhEP-56" value="IOPreference" style="swimlane;fontStyle=0;childLayout=stackLayout;horizontal=1;startSize=26;fillColor=none;horizontalStack=0;resizeParent=1;resizeParentMax=0;resizeLast=0;collapsible=1;marginBottom=0;whiteSpace=wrap;html=1;fontSize=13;" parent="1" vertex="1">
          <mxGeometry x="-396" y="418" width="200" height="86" as="geometry" />
        </mxCell>
        <mxCell id="GkcXhDEHEu3UvXluwhEP-59" value="+ OutputFormat:str" style="text;whiteSpace=wrap;html=1;fontFamily=Helvetica;fontSize=13;fontColor=default;spacingLeft=4;" parent="GkcXhDEHEu3UvXluwhEP-56" vertex="1">
          <mxGeometry y="26" width="200" height="30" as="geometry" />
        </mxCell>
        <mxCell id="GkcXhDEHEu3UvXluwhEP-60" value="+ OutputTemplate:file" style="text;whiteSpace=wrap;html=1;fontFamily=Helvetica;fontSize=13;fontColor=default;spacingLeft=4;" parent="GkcXhDEHEu3UvXluwhEP-56" vertex="1">
          <mxGeometry y="56" width="200" height="30" as="geometry" />
        </mxCell>
        <mxCell id="GkcXhDEHEu3UvXluwhEP-68" value="Term" style="swimlane;fontStyle=0;childLayout=stackLayout;horizontal=1;startSize=26;fillColor=none;horizontalStack=0;resizeParent=1;resizeParentMax=0;resizeLast=0;collapsible=1;marginBottom=0;whiteSpace=wrap;html=1;fontSize=13;" parent="1" vertex="1">
          <mxGeometry x="-146" y="574" width="200" height="176" as="geometry" />
        </mxCell>
        <mxCell id="GkcXhDEHEu3UvXluwhEP-69" value="+ TermStr:str" style="text;whiteSpace=wrap;html=1;fontFamily=Helvetica;fontSize=13;fontColor=default;spacingLeft=4;" parent="GkcXhDEHEu3UvXluwhEP-68" vertex="1">
          <mxGeometry y="26" width="200" height="30" as="geometry" />
        </mxCell>
        <mxCell id="GkcXhDEHEu3UvXluwhEP-70" value="+ Alias:str[]" style="text;whiteSpace=wrap;html=1;fontFamily=Helvetica;fontSize=13;fontColor=default;spacingLeft=4;" parent="GkcXhDEHEu3UvXluwhEP-68" vertex="1">
          <mxGeometry y="56" width="200" height="30" as="geometry" />
        </mxCell>
        <mxCell id="GkcXhDEHEu3UvXluwhEP-71" value="+ IncorrectStr:str[]" style="text;whiteSpace=wrap;html=1;fontFamily=Helvetica;fontSize=13;fontColor=default;spacingLeft=4;" parent="GkcXhDEHEu3UvXluwhEP-68" vertex="1">
          <mxGeometry y="86" width="200" height="30" as="geometry" />
        </mxCell>
        <mxCell id="GkcXhDEHEu3UvXluwhEP-72" value="+ Desc:str" style="text;whiteSpace=wrap;html=1;fontFamily=Helvetica;fontSize=13;fontColor=default;spacingLeft=4;" parent="GkcXhDEHEu3UvXluwhEP-68" vertex="1">
          <mxGeometry y="116" width="200" height="30" as="geometry" />
        </mxCell>
        <mxCell id="GkcXhDEHEu3UvXluwhEP-75" value="+ AutoComplete:bool" style="text;whiteSpace=wrap;html=1;fontFamily=Helvetica;fontSize=13;fontColor=default;spacingLeft=4;" parent="GkcXhDEHEu3UvXluwhEP-68" vertex="1">
          <mxGeometry y="146" width="200" height="30" as="geometry" />
        </mxCell>
        <mxCell id="GkcXhDEHEu3UvXluwhEP-76" value="ProjectTODOList" style="swimlane;fontStyle=0;childLayout=stackLayout;horizontal=1;startSize=26;fillColor=none;horizontalStack=0;resizeParent=1;resizeParentMax=0;resizeLast=0;collapsible=1;marginBottom=0;whiteSpace=wrap;html=1;fontSize=13;" parent="1" vertex="1">
          <mxGeometry x="-396" y="780" width="200" height="156" as="geometry" />
        </mxCell>
        <mxCell id="GkcXhDEHEu3UvXluwhEP-78" value="+ Title:str" style="text;strokeColor=none;fillColor=none;align=left;verticalAlign=top;spacingLeft=4;spacingRight=4;overflow=hidden;rotatable=0;points=[[0,0.5],[1,0.5]];portConstraint=eastwest;whiteSpace=wrap;html=1;fontSize=13;" parent="GkcXhDEHEu3UvXluwhEP-76" vertex="1">
          <mxGeometry y="26" width="200" height="26" as="geometry" />
        </mxCell>
        <mxCell id="GkcXhDEHEu3UvXluwhEP-87" value="+ Desc:str" style="text;strokeColor=none;fillColor=none;align=left;verticalAlign=top;spacingLeft=4;spacingRight=4;overflow=hidden;rotatable=0;points=[[0,0.5],[1,0.5]];portConstraint=eastwest;whiteSpace=wrap;html=1;fontSize=13;" parent="GkcXhDEHEu3UvXluwhEP-76" vertex="1">
          <mxGeometry y="52" width="200" height="26" as="geometry" />
        </mxCell>
        <mxCell id="GkcXhDEHEu3UvXluwhEP-85" value="+ StartDate:timestamp" style="text;strokeColor=none;fillColor=none;align=left;verticalAlign=top;spacingLeft=4;spacingRight=4;overflow=hidden;rotatable=0;points=[[0,0.5],[1,0.5]];portConstraint=eastwest;whiteSpace=wrap;html=1;fontSize=13;" parent="GkcXhDEHEu3UvXluwhEP-76" vertex="1">
          <mxGeometry y="78" width="200" height="26" as="geometry" />
        </mxCell>
        <mxCell id="GkcXhDEHEu3UvXluwhEP-88" value="+ EndDate:timestamp" style="text;strokeColor=none;fillColor=none;align=left;verticalAlign=top;spacingLeft=4;spacingRight=4;overflow=hidden;rotatable=0;points=[[0,0.5],[1,0.5]];portConstraint=eastwest;whiteSpace=wrap;html=1;fontSize=13;" parent="GkcXhDEHEu3UvXluwhEP-76" vertex="1">
          <mxGeometry y="104" width="200" height="26" as="geometry" />
        </mxCell>
        <mxCell id="GkcXhDEHEu3UvXluwhEP-86" value="+ IsComplete:bool" style="text;strokeColor=none;fillColor=none;align=left;verticalAlign=top;spacingLeft=4;spacingRight=4;overflow=hidden;rotatable=0;points=[[0,0.5],[1,0.5]];portConstraint=eastwest;whiteSpace=wrap;html=1;fontSize=13;" parent="GkcXhDEHEu3UvXluwhEP-76" vertex="1">
          <mxGeometry y="130" width="200" height="26" as="geometry" />
        </mxCell>
        <mxCell id="GkcXhDEHEu3UvXluwhEP-90" value="ProjectReleasePoint" style="swimlane;fontStyle=0;childLayout=stackLayout;horizontal=1;startSize=26;fillColor=none;horizontalStack=0;resizeParent=1;resizeParentMax=0;resizeLast=0;collapsible=1;marginBottom=0;whiteSpace=wrap;html=1;fontSize=13;" parent="1" vertex="1">
          <mxGeometry x="-156" y="780" width="200" height="182" as="geometry" />
        </mxCell>
        <mxCell id="GkcXhDEHEu3UvXluwhEP-91" value="+ Title:str" style="text;strokeColor=none;fillColor=none;align=left;verticalAlign=top;spacingLeft=4;spacingRight=4;overflow=hidden;rotatable=0;points=[[0,0.5],[1,0.5]];portConstraint=eastwest;whiteSpace=wrap;html=1;fontSize=13;" parent="GkcXhDEHEu3UvXluwhEP-90" vertex="1">
          <mxGeometry y="26" width="200" height="26" as="geometry" />
        </mxCell>
        <mxCell id="GkcXhDEHEu3UvXluwhEP-93" value="+ Desc:str" style="text;strokeColor=none;fillColor=none;align=left;verticalAlign=top;spacingLeft=4;spacingRight=4;overflow=hidden;rotatable=0;points=[[0,0.5],[1,0.5]];portConstraint=eastwest;whiteSpace=wrap;html=1;fontSize=13;" parent="GkcXhDEHEu3UvXluwhEP-90" vertex="1">
          <mxGeometry y="52" width="200" height="26" as="geometry" />
        </mxCell>
        <mxCell id="GkcXhDEHEu3UvXluwhEP-95" value="+ EndDate:timestamp" style="text;strokeColor=none;fillColor=none;align=left;verticalAlign=top;spacingLeft=4;spacingRight=4;overflow=hidden;rotatable=0;points=[[0,0.5],[1,0.5]];portConstraint=eastwest;whiteSpace=wrap;html=1;fontSize=13;" parent="GkcXhDEHEu3UvXluwhEP-90" vertex="1">
          <mxGeometry y="78" width="200" height="26" as="geometry" />
        </mxCell>
        <mxCell id="GkcXhDEHEu3UvXluwhEP-96" value="+ IsEnd:bool" style="text;strokeColor=none;fillColor=none;align=left;verticalAlign=top;spacingLeft=4;spacingRight=4;overflow=hidden;rotatable=0;points=[[0,0.5],[1,0.5]];portConstraint=eastwest;whiteSpace=wrap;html=1;fontSize=13;" parent="GkcXhDEHEu3UvXluwhEP-90" vertex="1">
          <mxGeometry y="104" width="200" height="26" as="geometry" />
        </mxCell>
        <mxCell id="GkcXhDEHEu3UvXluwhEP-97" value="+ IsComplete:bool" style="text;strokeColor=none;fillColor=none;align=left;verticalAlign=top;spacingLeft=4;spacingRight=4;overflow=hidden;rotatable=0;points=[[0,0.5],[1,0.5]];portConstraint=eastwest;whiteSpace=wrap;html=1;fontSize=13;" parent="GkcXhDEHEu3UvXluwhEP-90" vertex="1">
          <mxGeometry y="130" width="200" height="26" as="geometry" />
        </mxCell>
        <mxCell id="GkcXhDEHEu3UvXluwhEP-98" value="+ IsAutoRelease:bool" style="text;strokeColor=none;fillColor=none;align=left;verticalAlign=top;spacingLeft=4;spacingRight=4;overflow=hidden;rotatable=0;points=[[0,0.5],[1,0.5]];portConstraint=eastwest;whiteSpace=wrap;html=1;fontSize=13;" parent="GkcXhDEHEu3UvXluwhEP-90" vertex="1">
          <mxGeometry y="156" width="200" height="26" as="geometry" />
        </mxCell>
        <mxCell id="GkcXhDEHEu3UvXluwhEP-99" value="Release" style="swimlane;fontStyle=0;childLayout=stackLayout;horizontal=1;startSize=26;fillColor=none;horizontalStack=0;resizeParent=1;resizeParentMax=0;resizeLast=0;collapsible=1;marginBottom=0;whiteSpace=wrap;html=1;fontSize=13;" parent="1" vertex="1">
          <mxGeometry x="-156" y="1000" width="200" height="182" as="geometry" />
        </mxCell>
        <mxCell id="GkcXhDEHEu3UvXluwhEP-100" value="+ Title:str" style="text;strokeColor=none;fillColor=none;align=left;verticalAlign=top;spacingLeft=4;spacingRight=4;overflow=hidden;rotatable=0;points=[[0,0.5],[1,0.5]];portConstraint=eastwest;whiteSpace=wrap;html=1;fontSize=13;" parent="GkcXhDEHEu3UvXluwhEP-99" vertex="1">
          <mxGeometry y="26" width="200" height="26" as="geometry" />
        </mxCell>
        <mxCell id="GkcXhDEHEu3UvXluwhEP-102" value="+ Desc:str" style="text;strokeColor=none;fillColor=none;align=left;verticalAlign=top;spacingLeft=4;spacingRight=4;overflow=hidden;rotatable=0;points=[[0,0.5],[1,0.5]];portConstraint=eastwest;whiteSpace=wrap;html=1;fontSize=13;" parent="GkcXhDEHEu3UvXluwhEP-99" vertex="1">
          <mxGeometry y="52" width="200" height="26" as="geometry" />
        </mxCell>
        <mxCell id="GkcXhDEHEu3UvXluwhEP-105" value="+ File:folder" style="text;strokeColor=none;fillColor=none;align=left;verticalAlign=top;spacingLeft=4;spacingRight=4;overflow=hidden;rotatable=0;points=[[0,0.5],[1,0.5]];portConstraint=eastwest;whiteSpace=wrap;html=1;fontSize=13;" parent="GkcXhDEHEu3UvXluwhEP-99" vertex="1">
          <mxGeometry y="78" width="200" height="26" as="geometry" />
        </mxCell>
        <mxCell id="GkcXhDEHEu3UvXluwhEP-103" value="+ ReleaseDate:timestamp" style="text;strokeColor=none;fillColor=none;align=left;verticalAlign=top;spacingLeft=4;spacingRight=4;overflow=hidden;rotatable=0;points=[[0,0.5],[1,0.5]];portConstraint=eastwest;whiteSpace=wrap;html=1;fontSize=13;" parent="GkcXhDEHEu3UvXluwhEP-99" vertex="1">
          <mxGeometry y="104" width="200" height="26" as="geometry" />
        </mxCell>
        <mxCell id="GkcXhDEHEu3UvXluwhEP-106" value="+ IsAutoRelease:bool" style="text;strokeColor=none;fillColor=none;align=left;verticalAlign=top;spacingLeft=4;spacingRight=4;overflow=hidden;rotatable=0;points=[[0,0.5],[1,0.5]];portConstraint=eastwest;whiteSpace=wrap;html=1;fontSize=13;" parent="GkcXhDEHEu3UvXluwhEP-99" vertex="1">
          <mxGeometry y="130" width="200" height="26" as="geometry" />
        </mxCell>
        <mxCell id="GkcXhDEHEu3UvXluwhEP-104" value="+ IsFailed:bool" style="text;strokeColor=none;fillColor=none;align=left;verticalAlign=top;spacingLeft=4;spacingRight=4;overflow=hidden;rotatable=0;points=[[0,0.5],[1,0.5]];portConstraint=eastwest;whiteSpace=wrap;html=1;fontSize=13;" parent="GkcXhDEHEu3UvXluwhEP-99" vertex="1">
          <mxGeometry y="156" width="200" height="26" as="geometry" />
        </mxCell>
        <mxCell id="GkcXhDEHEu3UvXluwhEP-107" value="ReleaseDelay" style="swimlane;fontStyle=0;childLayout=stackLayout;horizontal=1;startSize=26;fillColor=none;horizontalStack=0;resizeParent=1;resizeParentMax=0;resizeLast=0;collapsible=1;marginBottom=0;whiteSpace=wrap;html=1;fontSize=13;" parent="1" vertex="1">
          <mxGeometry x="-396" y="1000" width="230" height="130" as="geometry" />
        </mxCell>
        <mxCell id="GkcXhDEHEu3UvXluwhEP-108" value="+ Operator:str" style="text;strokeColor=none;fillColor=none;align=left;verticalAlign=top;spacingLeft=4;spacingRight=4;overflow=hidden;rotatable=0;points=[[0,0.5],[1,0.5]];portConstraint=eastwest;whiteSpace=wrap;html=1;fontSize=13;" parent="GkcXhDEHEu3UvXluwhEP-107" vertex="1">
          <mxGeometry y="26" width="230" height="26" as="geometry" />
        </mxCell>
        <mxCell id="GkcXhDEHEu3UvXluwhEP-109" value="+ ReleasePoint:ProjectReleasePoint" style="text;strokeColor=none;fillColor=none;align=left;verticalAlign=top;spacingLeft=4;spacingRight=4;overflow=hidden;rotatable=0;points=[[0,0.5],[1,0.5]];portConstraint=eastwest;whiteSpace=wrap;html=1;fontSize=13;" parent="GkcXhDEHEu3UvXluwhEP-107" vertex="1">
          <mxGeometry y="52" width="230" height="26" as="geometry" />
        </mxCell>
        <mxCell id="GkcXhDEHEu3UvXluwhEP-110" value="+ ReleaseWhenEnd:bool" style="text;strokeColor=none;fillColor=none;align=left;verticalAlign=top;spacingLeft=4;spacingRight=4;overflow=hidden;rotatable=0;points=[[0,0.5],[1,0.5]];portConstraint=eastwest;whiteSpace=wrap;html=1;fontSize=13;" parent="GkcXhDEHEu3UvXluwhEP-107" vertex="1">
          <mxGeometry y="78" width="230" height="26" as="geometry" />
        </mxCell>
        <mxCell id="GkcXhDEHEu3UvXluwhEP-111" value="+ DelayDate:timestamp" style="text;strokeColor=none;fillColor=none;align=left;verticalAlign=top;spacingLeft=4;spacingRight=4;overflow=hidden;rotatable=0;points=[[0,0.5],[1,0.5]];portConstraint=eastwest;whiteSpace=wrap;html=1;fontSize=13;" parent="GkcXhDEHEu3UvXluwhEP-107" vertex="1">
          <mxGeometry y="104" width="230" height="26" as="geometry" />
        </mxCell>
        <mxCell id="GkcXhDEHEu3UvXluwhEP-208" style="edgeStyle=orthogonalEdgeStyle;rounded=0;orthogonalLoop=1;jettySize=auto;html=1;exitX=0.5;exitY=1;exitDx=0;exitDy=0;endArrow=diamondThin;endFill=1;fontSize=13;" parent="1" source="GkcXhDEHEu3UvXluwhEP-60" edge="1">
          <mxGeometry relative="1" as="geometry">
            <mxPoint x="-436" y="530" as="targetPoint" />
            <Array as="points">
              <mxPoint x="-296" y="530" />
              <mxPoint x="-436" y="530" />
            </Array>
          </mxGeometry>
        </mxCell>
        <mxCell id="GkcXhDEHEu3UvXluwhEP-209" style="edgeStyle=orthogonalEdgeStyle;rounded=0;orthogonalLoop=1;jettySize=auto;html=1;exitX=0.5;exitY=1;exitDx=0;exitDy=0;endArrow=diamondThin;endFill=1;fontSize=13;" parent="1" source="gI9t6yz1Oa0XXFwcf4oz-60" edge="1">
          <mxGeometry relative="1" as="geometry">
            <mxPoint x="-436" y="550" as="targetPoint" />
            <Array as="points">
              <mxPoint x="-56" y="550" />
              <mxPoint x="-436" y="550" />
            </Array>
          </mxGeometry>
        </mxCell>
        <mxCell id="GkcXhDEHEu3UvXluwhEP-217" style="edgeStyle=orthogonalEdgeStyle;rounded=0;orthogonalLoop=1;jettySize=auto;html=1;exitX=0.25;exitY=1;exitDx=0;exitDy=0;entryX=1.005;entryY=0.846;entryDx=0;entryDy=0;entryPerimeter=0;endArrow=diamondThin;endFill=1;fontSize=13;" parent="1" source="GkcXhDEHEu3UvXluwhEP-76" target="GkcXhDEHEu3UvXluwhEP-42" edge="1">
          <mxGeometry relative="1" as="geometry" />
        </mxCell>
        <mxCell id="GkcXhDEHEu3UvXluwhEP-218" style="edgeStyle=orthogonalEdgeStyle;rounded=0;orthogonalLoop=1;jettySize=auto;html=1;exitX=0.25;exitY=1;exitDx=0;exitDy=0;entryX=1;entryY=0.5;entryDx=0;entryDy=0;endArrow=diamondThin;endFill=1;fontSize=13;" parent="1" source="GkcXhDEHEu3UvXluwhEP-90" target="GkcXhDEHEu3UvXluwhEP-44" edge="1">
          <mxGeometry relative="1" as="geometry">
            <Array as="points">
              <mxPoint x="-106" y="975" />
            </Array>
          </mxGeometry>
        </mxCell>
        <mxCell id="GkcXhDEHEu3UvXluwhEP-252" value="1" style="text;html=1;align=center;verticalAlign=middle;resizable=0;points=[];autosize=1;strokeColor=none;fillColor=none;fontSize=13;" parent="1" vertex="1">
          <mxGeometry x="-746" y="560" width="30" height="30" as="geometry" />
        </mxCell>
        <mxCell id="GkcXhDEHEu3UvXluwhEP-253" value="1" style="text;html=1;align=center;verticalAlign=middle;resizable=0;points=[];autosize=1;strokeColor=none;fillColor=none;fontSize=13;" parent="1" vertex="1">
          <mxGeometry x="-710" y="860" width="30" height="30" as="geometry" />
        </mxCell>
        <mxCell id="GkcXhDEHEu3UvXluwhEP-263" value="0..n" style="text;html=1;align=center;verticalAlign=middle;resizable=0;points=[];autosize=1;strokeColor=none;fillColor=none;fontSize=13;" parent="1" vertex="1">
          <mxGeometry x="-306" y="504" width="50" height="30" as="geometry" />
        </mxCell>
        <mxCell id="GkcXhDEHEu3UvXluwhEP-264" value="0..n" style="text;html=1;align=center;verticalAlign=middle;resizable=0;points=[];autosize=1;strokeColor=none;fillColor=none;fontSize=13;" parent="1" vertex="1">
          <mxGeometry x="-110" y="526" width="50" height="30" as="geometry" />
        </mxCell>
        <mxCell id="GkcXhDEHEu3UvXluwhEP-265" value="0..n" style="text;html=1;align=center;verticalAlign=middle;resizable=0;points=[];autosize=1;strokeColor=none;fillColor=none;fontSize=13;" parent="1" vertex="1">
          <mxGeometry x="-194" y="724" width="50" height="30" as="geometry" />
        </mxCell>
        <mxCell id="GkcXhDEHEu3UvXluwhEP-266" value="1 0..n" style="text;html=1;align=center;verticalAlign=middle;resizable=0;points=[];autosize=1;strokeColor=none;fillColor=none;fontSize=13;" parent="1" vertex="1">
          <mxGeometry x="-436" y="629" width="60" height="30" as="geometry" />
        </mxCell>
        <mxCell id="GkcXhDEHEu3UvXluwhEP-267" value="0..n" style="text;html=1;align=center;verticalAlign=middle;resizable=0;points=[];autosize=1;strokeColor=none;fillColor=none;fontSize=13;" parent="1" vertex="1">
          <mxGeometry x="-349" y="932" width="50" height="30" as="geometry" />
        </mxCell>
        <mxCell id="GkcXhDEHEu3UvXluwhEP-268" value="0..n" style="text;html=1;align=center;verticalAlign=middle;resizable=0;points=[];autosize=1;strokeColor=none;fillColor=none;fontSize=13;" parent="1" vertex="1">
          <mxGeometry x="-201" y="950" width="50" height="30" as="geometry" />
        </mxCell>
        <mxCell id="GkcXhDEHEu3UvXluwhEP-269" value="0..n" style="text;html=1;align=center;verticalAlign=middle;resizable=0;points=[];autosize=1;strokeColor=none;fillColor=none;fontSize=13;" parent="1" vertex="1">
          <mxGeometry x="-446" y="1033" width="50" height="30" as="geometry" />
        </mxCell>
        <mxCell id="GkcXhDEHEu3UvXluwhEP-270" value="0..n" style="text;html=1;align=center;verticalAlign=middle;resizable=0;points=[];autosize=1;strokeColor=none;fillColor=none;fontSize=13;" parent="1" vertex="1">
          <mxGeometry x="-211" y="1140" width="50" height="30" as="geometry" />
        </mxCell>
        <mxCell id="iaXDbrhAoCBRmgVuGUHC-2" style="edgeStyle=orthogonalEdgeStyle;rounded=0;orthogonalLoop=1;jettySize=auto;html=1;exitX=0;exitY=0.25;exitDx=0;exitDy=0;entryX=0.998;entryY=0.385;entryDx=0;entryDy=0;entryPerimeter=0;endArrow=diamondThin;endFill=1;" parent="1" source="GkcXhDEHEu3UvXluwhEP-55" target="GkcXhDEHEu3UvXluwhEP-33" edge="1">
          <mxGeometry relative="1" as="geometry">
            <Array as="points">
              <mxPoint x="-381" y="654" />
              <mxPoint x="-406" y="654" />
            </Array>
          </mxGeometry>
        </mxCell>
        <mxCell id="iaXDbrhAoCBRmgVuGUHC-3" style="edgeStyle=orthogonalEdgeStyle;rounded=0;orthogonalLoop=1;jettySize=auto;html=1;exitX=0;exitY=0.5;exitDx=0;exitDy=0;entryX=1.002;entryY=0.615;entryDx=0;entryDy=0;entryPerimeter=0;endArrow=diamondThin;endFill=1;" parent="1" source="GkcXhDEHEu3UvXluwhEP-75" target="GkcXhDEHEu3UvXluwhEP-37" edge="1">
          <mxGeometry relative="1" as="geometry">
            <Array as="points">
              <mxPoint x="-146" y="750" />
              <mxPoint x="-429" y="750" />
            </Array>
          </mxGeometry>
        </mxCell>
        <mxCell id="iaXDbrhAoCBRmgVuGUHC-4" style="edgeStyle=orthogonalEdgeStyle;rounded=0;orthogonalLoop=1;jettySize=auto;html=1;exitX=0;exitY=0.5;exitDx=0;exitDy=0;entryX=0.849;entryY=1.014;entryDx=0;entryDy=0;entryPerimeter=0;endArrow=diamondThin;endFill=1;" parent="1" source="GkcXhDEHEu3UvXluwhEP-108" target="GkcXhDEHEu3UvXluwhEP-45" edge="1">
          <mxGeometry relative="1" as="geometry" />
        </mxCell>
        <mxCell id="iaXDbrhAoCBRmgVuGUHC-5" style="edgeStyle=orthogonalEdgeStyle;rounded=0;orthogonalLoop=1;jettySize=auto;html=1;exitX=0;exitY=0.5;exitDx=0;exitDy=0;entryX=0.804;entryY=1.046;entryDx=0;entryDy=0;entryPerimeter=0;endArrow=diamondThin;endFill=1;" parent="1" source="GkcXhDEHEu3UvXluwhEP-106" target="GkcXhDEHEu3UvXluwhEP-45" edge="1">
          <mxGeometry relative="1" as="geometry">
            <Array as="points">
              <mxPoint x="-490" y="1143" />
              <mxPoint x="-490" y="1015" />
            </Array>
          </mxGeometry>
        </mxCell>
        <mxCell id="iaXDbrhAoCBRmgVuGUHC-6" style="edgeStyle=orthogonalEdgeStyle;rounded=0;orthogonalLoop=1;jettySize=auto;html=1;exitX=0;exitY=0.5;exitDx=0;exitDy=0;endArrow=diamondThin;endFill=1;" parent="1" source="GkcXhDEHEu3UvXluwhEP-39" edge="1">
          <mxGeometry relative="1" as="geometry">
            <mxPoint x="-748" y="1042" as="targetPoint" />
          </mxGeometry>
        </mxCell>
        <mxCell id="iaXDbrhAoCBRmgVuGUHC-7" style="edgeStyle=orthogonalEdgeStyle;rounded=0;orthogonalLoop=1;jettySize=auto;html=1;exitX=0;exitY=0;exitDx=0;exitDy=0;entryX=0.187;entryY=0.001;entryDx=0;entryDy=0;endArrow=diamondThin;endFill=1;entryPerimeter=0;" parent="1" source="GkcXhDEHEu3UvXluwhEP-32" target="gI9t6yz1Oa0XXFwcf4oz-1" edge="1">
          <mxGeometry relative="1" as="geometry" />
        </mxCell>
        <mxCell id="iaXDbrhAoCBRmgVuGUHC-8" value="1" style="text;html=1;align=center;verticalAlign=middle;resizable=0;points=[];autosize=1;strokeColor=none;fillColor=none;fontSize=13;" parent="1" vertex="1">
          <mxGeometry x="-751" y="890" width="30" height="30" as="geometry" />
        </mxCell>
        <mxCell id="iO8rQZ6ih4lfwwT7dncX-1" value="1" style="text;html=1;align=center;verticalAlign=middle;resizable=0;points=[];autosize=1;strokeColor=none;fillColor=none;" vertex="1" parent="1">
          <mxGeometry x="-800" y="1012" width="30" height="30" as="geometry" />
        </mxCell>
        <mxCell id="iO8rQZ6ih4lfwwT7dncX-3" value="1" style="text;html=1;align=center;verticalAlign=middle;resizable=0;points=[];autosize=1;strokeColor=none;fillColor=none;" vertex="1" parent="1">
          <mxGeometry x="-740" y="1012" width="30" height="30" as="geometry" />
        </mxCell>
        <mxCell id="iO8rQZ6ih4lfwwT7dncX-5" value="1" style="text;html=1;align=center;verticalAlign=middle;resizable=0;points=[];autosize=1;strokeColor=none;fillColor=none;" vertex="1" parent="1">
          <mxGeometry x="-476" y="1012" width="30" height="30" as="geometry" />
        </mxCell>
        <mxCell id="iO8rQZ6ih4lfwwT7dncX-6" value="1" style="text;html=1;align=center;verticalAlign=middle;resizable=0;points=[];autosize=1;strokeColor=none;fillColor=none;" vertex="1" parent="1">
          <mxGeometry x="-490" y="1050" width="30" height="30" as="geometry" />
        </mxCell>
        <mxCell id="iO8rQZ6ih4lfwwT7dncX-7" value="1" style="text;html=1;align=center;verticalAlign=middle;resizable=0;points=[];autosize=1;strokeColor=none;fillColor=none;" vertex="1" parent="1">
          <mxGeometry x="-436" y="975" width="30" height="30" as="geometry" />
        </mxCell>
        <mxCell id="iO8rQZ6ih4lfwwT7dncX-8" value="1" style="text;html=1;align=center;verticalAlign=middle;resizable=0;points=[];autosize=1;strokeColor=none;fillColor=none;" vertex="1" parent="1">
          <mxGeometry x="-430" y="928" width="30" height="30" as="geometry" />
        </mxCell>
        <mxCell id="iO8rQZ6ih4lfwwT7dncX-9" value="1" style="text;html=1;align=center;verticalAlign=middle;resizable=0;points=[];autosize=1;strokeColor=none;fillColor=none;" vertex="1" parent="1">
          <mxGeometry x="-426" y="724" width="30" height="30" as="geometry" />
        </mxCell>
        <mxCell id="iO8rQZ6ih4lfwwT7dncX-10" value="1" style="text;html=1;align=center;verticalAlign=middle;resizable=0;points=[];autosize=1;strokeColor=none;fillColor=none;" vertex="1" parent="1">
          <mxGeometry x="-430" y="550" width="30" height="30" as="geometry" />
        </mxCell>
        <mxCell id="iO8rQZ6ih4lfwwT7dncX-11" value="1" style="text;html=1;align=center;verticalAlign=middle;resizable=0;points=[];autosize=1;strokeColor=none;fillColor=none;" vertex="1" parent="1">
          <mxGeometry x="-430" y="496" width="30" height="30" as="geometry" />
        </mxCell>
      </root>
    </mxGraphModel>
  </diagram>
</mxfile>
